<?xml version="1.0" encoding="UTF-8"?>
<!DOCTYPE svg PUBLIC "-//W3C//DTD SVG 1.1//EN" "http://www.w3.org/Graphics/SVG/1.1/DTD/svg11.dtd">
<!-- Creator: CorelDRAW (Versão de avaliação) -->
<svg xmlns="http://www.w3.org/2000/svg" xml:space="preserve" width="34.1834mm" height="41.8975mm" version="1.1" style="shape-rendering:geometricPrecision; text-rendering:geometricPrecision; image-rendering:optimizeQuality; fill-rule:evenodd; clip-rule:evenodd"
viewBox="0 0 409.36 501.73"
 xmlns:xlink="http://www.w3.org/1999/xlink"
 xmlns:xodm="http://www.corel.com/coreldraw/odm/2003">
 <defs>
  <style type="text/css">
   <![CDATA[
    .fil0 {fill:#6C79DB}
    .fil1 {fill:white}
   ]]>
  </style>
 </defs>
 <g id="Camada_x0020_1">
  <metadata id="CorelCorpID_0Corel-Layer"/>
  <g id="_2149164653552">
   <path class="fil0" d="M124.72 234.74c-0.1,-21.92 -0.2,-43.84 -0.2,-65.76 0,-31.68 -2.29,-63.8 0.33,-95.39 6.45,-77.75 107.32,-101.96 149.19,-33.07l2.6 4.28 1.75 4.69c6.12,16.44 5.86,46.36 6.19,64.17 0.55,30.22 0.49,60.5 0.38,90.73 -0.04,9.8 -0.14,19.68 -0.27,29.6 7.02,-5.01 14.82,-8.88 25.06,-11.41 27.45,-6.78 57.29,1.13 77.07,21.52 19.43,20.03 27.14,50.04 19.79,76.96 -5.49,20.1 -14.53,29.14 -28.51,42.76l-103.66 103.77c-30.03,30.07 -55.73,41.77 -98.81,29.09l-10.4 -3.06 -7.74 -6.43c-8.37,-5.2 -14.23,-9.93 -20.9,-17.57 -12.66,-14.51 -28.49,-29.25 -42.25,-42.87 -15.66,-15.5 -31.49,-30.86 -47.07,-46.44 -9.12,-9.12 -18.66,-17.55 -27.43,-27.07 -29.33,-31.79 -25.72,-87.55 7.97,-114.86 29.56,-23.96 66.21,-24.58 96.9,-3.64z"/>
  </g>
  <path class="fil1" d="M177.03 353.1l-0.54 5.32 -51.36 -51.7c-13.45,-8.55 -35.29,-50.93 -64.21,-27.49 -9.43,7.65 -11.75,28.28 -2.44,38.37 8.37,9.07 17.41,16.98 25.97,25.54 15.54,15.54 78.89,77.17 91.76,91.93 6.35,7.28 7.91,5.91 14.27,11.19 24.79,7.3 31.72,-0.84 46.77,-15.81l103.69 -103.79c5.11,-5.12 12.34,-9.82 14.96,-19.44 2.89,-10.59 -1.56,-21.1 -6.81,-26.51 -5.39,-5.56 -15.52,-9.85 -26.74,-7.08 -8.78,2.17 -15.67,10.66 -20.39,15.38 -9.63,9.64 -64.29,65.78 -70.04,69.05 -1.28,-40.12 3.45,-273.4 -2.8,-290.21 -16.43,-27.02 -49.77,-15.37 -51.88,10.11 -2.21,26.68 -0.15,63.29 -0.15,91.05 0,61.21 0.82,122.98 -0.06,184.12z"/>
 </g>
</svg>
