<?xml version="1.0" encoding="UTF-8"?>
<!DOCTYPE svg PUBLIC "-//W3C//DTD SVG 1.1//EN" "http://www.w3.org/Graphics/SVG/1.1/DTD/svg11.dtd">
<!-- Creator: CorelDRAW (Versão de avaliação) -->
<svg xmlns="http://www.w3.org/2000/svg" xml:space="preserve" width="25.4064mm" height="33.1172mm" version="1.1" style="shape-rendering:geometricPrecision; text-rendering:geometricPrecision; image-rendering:optimizeQuality; fill-rule:evenodd; clip-rule:evenodd"
viewBox="0 0 219.38 285.96"
 xmlns:xlink="http://www.w3.org/1999/xlink"
 xmlns:xodm="http://www.corel.com/coreldraw/odm/2003">
 <defs>
  <style type="text/css">
   <![CDATA[
    .fil0 {fill:#6C79DB}
   ]]>
  </style>
 </defs>
 <g id="Camada_x0020_1">
  <metadata id="CorelCorpID_0Corel-Layer"/>
  <path class="fil0" d="M89.75 216.84l-0.39 3.83 -37.04 -37.28c-9.7,-6.17 -25.44,-36.73 -46.3,-19.82 -6.8,5.51 -8.47,20.39 -1.76,27.66 6.04,6.54 12.55,12.24 18.73,18.42 11.2,11.2 56.88,55.65 66.16,66.29 4.58,5.25 5.71,4.26 10.29,8.07 17.88,5.26 22.87,-0.61 33.72,-11.4l74.76 -74.84c3.69,-3.69 8.9,-7.08 10.79,-14.01 2.09,-7.64 -1.13,-15.22 -4.91,-19.11 -3.89,-4.01 -11.19,-7.1 -19.28,-5.11 -6.33,1.56 -11.3,7.69 -14.7,11.09 -6.94,6.95 -46.36,47.43 -50.51,49.79 -0.92,-28.93 2.49,-197.14 -2.02,-209.26 -11.84,-19.48 -35.89,-11.08 -37.41,7.29 -1.6,19.24 -0.11,45.63 -0.11,65.65 0,44.13 0.59,88.68 -0.04,132.76z"/>
 </g>
</svg>
