<?xml version="1.0" encoding="UTF-8"?>
<!DOCTYPE svg PUBLIC "-//W3C//DTD SVG 1.1//EN" "http://www.w3.org/Graphics/SVG/1.1/DTD/svg11.dtd">
<!-- Creator: CorelDRAW (Versão de avaliação) -->
<svg xmlns="http://www.w3.org/2000/svg" xml:space="preserve" width="41.1658mm" height="41.4794mm" version="1.1" style="shape-rendering:geometricPrecision; text-rendering:geometricPrecision; image-rendering:optimizeQuality; fill-rule:evenodd; clip-rule:evenodd"
viewBox="0 0 332.09 334.62"
 xmlns:xlink="http://www.w3.org/1999/xlink"
 xmlns:xodm="http://www.corel.com/coreldraw/odm/2003">
 <defs>
  <style type="text/css">
   <![CDATA[
    .fil0 {fill:white}
   ]]>
  </style>
 </defs>
 <g id="Camada_x0020_1">
  <metadata id="CorelCorpID_0Corel-Layer"/>
  <g>
   <path class="fil0" d="M83.15 146.64c9.24,-37.18 42.85,-64.74 82.89,-64.74 40.04,0 73.65,27.55 82.89,64.74l-165.78 0zm248.93 41.35c-10.18,82.65 -80.64,146.64 -166.04,146.64 -85.4,0 -155.86,-63.99 -166.04,-146.64l332.09 0zm-332.09 -41.35c10.18,-82.65 80.64,-146.64 166.04,-146.64 85.4,0 155.86,63.99 166.04,146.64l-332.09 0zm248.93 41.35c-9.24,37.18 -42.85,64.74 -82.89,64.74 -40.04,0 -73.65,-27.55 -82.89,-64.74l165.78 0zm-82.89 -67.26c18.18,0 33.93,10.42 41.61,25.61l0.05 0.1c3.15,6.28 4.93,13.37 4.93,20.87 0,7.18 -1.63,13.99 -4.53,20.06l-0.05 0.1c-7.52,15.63 -23.5,26.42 -42.01,26.42 -18.38,0 -34.28,-10.65 -41.86,-26.12l-0.05 -0.1c-3,-6.15 -4.68,-13.07 -4.68,-20.37 0,-7.63 1.83,-14.82 5.08,-21.18l0.05 -0.1c7.73,-15.03 23.39,-25.31 41.45,-25.31zm166.04 67.26l-83.15 0 83.15 0zm-248.93 0l-83.15 0 83.15 0zm-83.15 -41.35l83.15 0 -83.15 0zm248.93 0l83.15 0 -83.15 0z"/>
  </g>
 </g>
</svg>
